<svg width="649" height="566" viewBox="0 0 649 566" fill="none" xmlns="http://www.w3.org/2000/svg">
<path d="M352.405 378.66C351.825 378.659 351.252 378.528 350.729 378.278C350.206 378.027 349.745 377.663 349.381 377.211L332.796 356.939H90.3604C87.9742 356.936 85.6866 355.987 83.9994 354.3C82.3122 352.613 81.3631 350.325 81.3604 347.939V203.939C81.3631 201.553 82.3122 199.265 83.9994 197.578C85.6866 195.891 87.9742 194.942 90.3604 194.939H347.36C349.746 194.942 352.034 195.891 353.721 197.578C355.409 199.265 356.358 201.553 356.36 203.939V374.719C356.366 375.532 356.118 376.327 355.65 376.991C355.181 377.656 354.517 378.157 353.749 378.424C353.318 378.579 352.863 378.659 352.405 378.66ZM90.3604 196.939C88.5045 196.941 86.7252 197.679 85.4129 198.992C84.1006 200.304 83.3624 202.083 83.3604 203.939V347.939C83.3624 349.795 84.1006 351.574 85.4129 352.886C86.7252 354.199 88.5045 354.937 90.3604 354.939H333.743L350.929 375.944C351.182 376.253 351.524 376.476 351.908 376.583C352.293 376.69 352.701 376.675 353.076 376.541C353.452 376.407 353.777 376.16 354.007 375.834C354.237 375.507 354.36 375.118 354.36 374.719V203.939C354.358 202.083 353.62 200.304 352.308 198.992C350.995 197.679 349.216 196.941 347.36 196.939H90.3604Z" fill="#254145"/>
<path d="M318 327H119C117.674 327 116.402 326.684 115.464 326.121C114.527 325.559 114 324.796 114 324C114 323.204 114.527 322.441 115.464 321.879C116.402 321.316 117.674 321 119 321H318C319.326 321 320.598 321.316 321.536 321.879C322.473 322.441 323 323.204 323 324C323 324.796 322.473 325.559 321.536 326.121C320.598 326.684 319.326 327 318 327V327Z" fill="#ECECEC" fill-opacity="0.9"/>
<path d="M143.282 280H114.718C114.527 280 114.345 279.684 114.21 279.121C114.076 278.559 114 277.796 114 277C114 276.204 114.076 275.441 114.21 274.879C114.345 274.316 114.527 274 114.718 274H143.282C143.473 274 143.655 274.316 143.79 274.879C143.924 275.441 144 276.204 144 277C144 277.796 143.924 278.559 143.79 279.121C143.655 279.684 143.473 280 143.282 280V280Z" fill="#ECECEC" fill-opacity="0.9"/>
<path d="M322.33 280H295.67C295.492 280 295.322 279.684 295.196 279.121C295.071 278.559 295 277.796 295 277C295 276.204 295.071 275.441 295.196 274.879C295.322 274.316 295.492 274 295.67 274H322.33C322.508 274 322.678 274.316 322.804 274.879C322.929 275.441 323 276.204 323 277C323 277.796 322.929 278.559 322.804 279.121C322.678 279.684 322.508 280 322.33 280V280Z" fill="#ECECEC" fill-opacity="0.9"/>
<path d="M318 233H119C117.674 233 116.402 232.684 115.464 232.121C114.527 231.559 114 230.796 114 230C114 229.204 114.527 228.441 115.464 227.879C116.402 227.316 117.674 227 119 227H318C319.326 227 320.598 227.316 321.536 227.879C322.473 228.441 323 229.204 323 230C323 230.796 322.473 231.559 321.536 232.121C320.598 232.684 319.326 233 318 233V233Z" fill="#ECECEC" fill-opacity="0.9"/>
<path d="M164.5 279.16C164.254 281.797 163.346 283.824 161.775 285.242C160.205 286.648 158.072 287.352 155.377 287.352C153.561 287.352 151.949 286.895 150.543 285.98C149.148 285.055 148.064 283.748 147.291 282.061C146.518 280.361 146.125 278.422 146.113 276.242V272.287C146.113 270.107 146.494 268.162 147.256 266.451C148.018 264.729 149.102 263.398 150.508 262.461C151.926 261.523 153.549 261.055 155.377 261.055C158.049 261.055 160.176 261.758 161.758 263.164C163.34 264.57 164.254 266.586 164.5 269.211H163.551C163.281 266.855 162.461 265.068 161.09 263.85C159.719 262.619 157.814 262.004 155.377 262.004C152.893 262.004 150.883 262.941 149.348 264.816C147.824 266.691 147.062 269.205 147.062 272.357V276.119C147.062 278.135 147.402 279.922 148.082 281.48C148.762 283.027 149.734 284.234 151 285.102C152.277 285.969 153.736 286.402 155.377 286.402C157.826 286.402 159.736 285.799 161.107 284.592C162.49 283.385 163.305 281.574 163.551 279.16H164.5ZM171.127 287H170.178V260H171.127V287ZM178.545 287H177.596V267.98H178.545V287ZM177.104 262.039C177.104 261.77 177.197 261.541 177.385 261.354C177.572 261.154 177.801 261.055 178.07 261.055C178.34 261.055 178.568 261.154 178.756 261.354C178.955 261.541 179.055 261.77 179.055 262.039C179.055 262.309 178.955 262.537 178.756 262.725C178.568 262.912 178.34 263.006 178.07 263.006C177.801 263.006 177.572 262.912 177.385 262.725C177.197 262.537 177.104 262.309 177.104 262.039ZM191.236 286.402C192.959 286.402 194.377 285.945 195.49 285.031C196.615 284.117 197.23 282.852 197.336 281.234H198.285C198.191 283.074 197.482 284.557 196.158 285.682C194.834 286.795 193.193 287.352 191.236 287.352C188.857 287.352 186.965 286.49 185.559 284.768C184.164 283.045 183.467 280.707 183.467 277.754V277.121C183.467 274.238 184.164 271.936 185.559 270.213C186.965 268.49 188.846 267.629 191.201 267.629C193.217 267.629 194.881 268.232 196.193 269.439C197.506 270.646 198.203 272.252 198.285 274.256H197.336C197.254 272.545 196.65 271.174 195.525 270.143C194.412 269.1 192.971 268.578 191.201 268.578C189.08 268.578 187.416 269.346 186.209 270.881C185.014 272.404 184.416 274.525 184.416 277.244V277.859C184.416 280.52 185.02 282.611 186.227 284.135C187.445 285.646 189.115 286.402 191.236 286.402ZM206.811 276.717L206.775 276.752L204.016 279.125V287H203.066V260H204.016V278.088L206.248 275.979L214.896 267.98H216.25L207.514 276.084L216.795 287H215.564L206.811 276.717ZM229.68 272.41C230.301 270.934 231.215 269.768 232.422 268.912C233.629 268.057 234.965 267.629 236.43 267.629C238.469 267.629 239.98 268.209 240.965 269.369C241.961 270.518 242.465 272.258 242.477 274.59V287H241.527V274.555C241.516 272.516 241.1 271.01 240.279 270.037C239.459 269.053 238.158 268.561 236.377 268.561C234.736 268.561 233.312 269.146 232.105 270.318C230.91 271.479 230.102 272.979 229.68 274.818V287H228.73V260H229.68V272.41ZM255.291 287.352C253.756 287.352 252.344 286.941 251.055 286.121C249.777 285.289 248.775 284.152 248.049 282.711C247.322 281.27 246.959 279.67 246.959 277.912V277.121C246.959 275.363 247.311 273.752 248.014 272.287C248.717 270.822 249.684 269.68 250.914 268.859C252.145 268.039 253.486 267.629 254.939 267.629C257.061 267.629 258.795 268.385 260.143 269.896C261.49 271.408 262.164 273.395 262.164 275.855V276.857H247.908V277.895C247.908 279.441 248.23 280.877 248.875 282.201C249.531 283.514 250.428 284.545 251.564 285.295C252.713 286.045 253.955 286.42 255.291 286.42C256.568 286.42 257.652 286.209 258.543 285.787C259.445 285.354 260.242 284.691 260.934 283.801L261.602 284.275C260.184 286.326 258.08 287.352 255.291 287.352ZM254.939 268.578C253.088 268.578 251.518 269.27 250.229 270.652C248.939 272.023 248.184 273.775 247.961 275.908H261.215V275.68C261.215 274.391 260.939 273.195 260.389 272.094C259.85 270.98 259.1 270.119 258.139 269.51C257.189 268.889 256.123 268.578 254.939 268.578ZM274.979 268.666L273.748 268.561C272.131 268.561 270.777 269.088 269.688 270.143C268.598 271.186 267.883 272.65 267.543 274.537V287H266.594V267.98H267.543V271.936C268.059 270.611 268.832 269.562 269.863 268.789C270.895 268.016 272.189 267.629 273.748 267.629C274.299 267.629 274.744 267.693 275.084 267.822L274.979 268.666ZM285.139 287.352C283.604 287.352 282.191 286.941 280.902 286.121C279.625 285.289 278.623 284.152 277.896 282.711C277.17 281.27 276.807 279.67 276.807 277.912V277.121C276.807 275.363 277.158 273.752 277.861 272.287C278.564 270.822 279.531 269.68 280.762 268.859C281.992 268.039 283.334 267.629 284.787 267.629C286.908 267.629 288.643 268.385 289.99 269.896C291.338 271.408 292.012 273.395 292.012 275.855V276.857H277.756V277.895C277.756 279.441 278.078 280.877 278.723 282.201C279.379 283.514 280.275 284.545 281.412 285.295C282.561 286.045 283.803 286.42 285.139 286.42C286.416 286.42 287.5 286.209 288.391 285.787C289.293 285.354 290.09 284.691 290.781 283.801L291.449 284.275C290.031 286.326 287.928 287.352 285.139 287.352ZM284.787 268.578C282.936 268.578 281.365 269.27 280.076 270.652C278.787 272.023 278.031 273.775 277.809 275.908H291.062V275.68C291.062 274.391 290.787 273.195 290.236 272.094C289.697 270.98 288.947 270.119 287.986 269.51C287.037 268.889 285.971 268.578 284.787 268.578Z" fill="black"/>
<path d="M98.9447 172.465L94.8381 171.12C80.1805 166.179 70.551 163.023 67.121 155.291C66.455 153.858 66.0778 152.308 66.0108 150.73C65.9438 149.151 66.1885 147.574 66.7308 146.09C67.273 144.606 68.1023 143.243 69.1713 142.08C70.2403 140.916 71.528 139.974 72.9609 139.308C73.0664 139.259 73.1727 139.212 73.2795 139.166C75.0198 138.405 76.9048 138.032 78.8038 138.072C80.7027 138.113 82.57 138.566 84.2761 139.401C84.8022 137.576 85.7191 135.887 86.9633 134.452C88.2075 133.017 89.7492 131.87 91.4813 131.091C94.3833 129.763 97.6938 129.643 100.685 130.756C103.675 131.869 106.101 134.125 107.429 137.027C107.477 137.133 107.524 137.239 107.569 137.347C110.999 145.078 106.877 154.335 100.704 168.518L98.9447 172.465Z" fill="#FF6584"/>
<path d="M232.478 46.6842L229.8 45.8076C220.245 42.5859 213.967 40.5285 211.731 35.4881C211.297 34.554 211.051 33.5435 211.007 32.5142C210.963 31.485 211.123 30.4573 211.476 29.4897C211.83 28.5221 212.371 27.6337 213.067 26.875C213.764 26.1164 214.604 25.5025 215.538 25.0683C215.607 25.0363 215.676 25.0053 215.746 24.9753C216.88 24.4792 218.109 24.236 219.347 24.2625C220.585 24.289 221.803 24.5847 222.915 25.1289C223.258 23.9391 223.856 22.8381 224.667 21.9025C225.478 20.9669 226.483 20.2191 227.612 19.711C228.549 19.2824 229.561 19.0426 230.59 19.0052C231.62 18.9678 232.647 19.1335 233.612 19.4929C234.577 19.8523 235.463 20.3983 236.217 21.0998C236.971 21.8012 237.58 22.6444 238.009 23.5812C238.04 23.6502 238.071 23.7196 238.1 23.7895C240.336 28.8298 237.649 34.8648 233.625 44.1111L232.478 46.6842Z" fill="#FF6584"/>
<path d="M314.91 125.549H237.91C235.524 125.546 233.236 124.597 231.549 122.91C229.862 121.223 228.913 118.935 228.91 116.549V67.5491C228.913 65.163 229.862 62.8754 231.549 61.1881C233.236 59.5009 235.524 58.5518 237.91 58.5491H314.91C317.296 58.5518 319.584 59.5009 321.271 61.1881C322.958 62.8754 323.907 65.163 323.91 67.5491V116.549C323.907 118.935 322.958 121.223 321.271 122.91C319.584 124.597 317.296 125.546 314.91 125.549ZM237.91 60.5491C236.054 60.5512 234.275 61.2893 232.963 62.6016C231.65 63.9139 230.912 65.6932 230.91 67.5491V116.549C230.912 118.405 231.65 120.184 232.963 121.497C234.275 122.809 236.054 123.547 237.91 123.549H314.91C316.766 123.547 318.545 122.809 319.858 121.497C321.17 120.184 321.908 118.405 321.91 116.549V67.5491C321.908 65.6932 321.17 63.9139 319.858 62.6016C318.545 61.2893 316.766 60.5512 314.91 60.5491H237.91Z" fill="#254145"/>
<path d="M275.998 91.6062C273.94 91.6101 271.931 90.9816 270.242 89.8059L231.605 62.7927L232.751 61.1541L271.388 88.1672C272.724 89.0934 274.308 89.5955 275.933 89.6082C277.559 89.6209 279.15 89.1436 280.501 88.2385L320.275 61.3479L321.395 63.0051L281.621 89.8958C279.959 91.0141 278.001 91.6098 275.998 91.6062Z" fill="#254145"/>
<path d="M276.047 99.998C280.189 99.998 283.547 96.6402 283.547 92.498C283.547 88.3559 280.189 84.998 276.047 84.998C271.905 84.998 268.547 88.3559 268.547 92.498C268.547 96.6402 271.905 99.998 276.047 99.998Z" fill="#254145"/>
<path d="M419.119 173.067L416.985 172.368C409.369 169.8 404.365 168.16 402.583 164.142C401.884 162.639 401.811 160.919 402.38 159.361C402.949 157.804 404.113 156.536 405.617 155.837C405.672 155.811 405.727 155.787 405.783 155.763C406.687 155.367 407.667 155.174 408.653 155.195C409.64 155.216 410.61 155.451 411.497 155.885C411.77 154.937 412.247 154.059 412.893 153.314C413.54 152.568 414.341 151.972 415.241 151.567C415.988 151.225 416.794 151.034 417.615 151.004C418.436 150.974 419.254 151.106 420.024 151.393C420.793 151.679 421.499 152.115 422.1 152.674C422.701 153.233 423.187 153.905 423.528 154.652C423.553 154.707 423.578 154.762 423.601 154.818C425.383 158.835 423.241 163.646 420.034 171.016L419.119 173.067Z" fill="#FF6584"/>
<path d="M484.825 235.928H423.45C421.548 235.926 419.724 235.169 418.379 233.824C417.035 232.48 416.278 230.656 416.276 228.754V189.697C416.278 187.795 417.035 185.972 418.379 184.627C419.724 183.282 421.548 182.526 423.45 182.524H484.825C486.727 182.526 488.55 183.282 489.895 184.627C491.24 185.972 491.996 187.795 491.998 189.697V228.754C491.996 230.656 491.24 232.48 489.895 233.824C488.55 235.169 486.727 235.926 484.825 235.928ZM423.45 184.118C421.97 184.119 420.552 184.708 419.506 185.754C418.46 186.8 417.872 188.218 417.87 189.697V228.754C417.872 230.234 418.46 231.652 419.506 232.698C420.552 233.744 421.97 234.332 423.45 234.334H484.825C486.304 234.332 487.722 233.744 488.768 232.698C489.814 231.652 490.403 230.234 490.404 228.754V189.697C490.403 188.218 489.814 186.8 488.768 185.754C487.722 184.708 486.304 184.119 484.825 184.118H423.45Z" fill="#254145"/>
<path d="M453.808 208.873C452.168 208.876 450.567 208.375 449.221 207.438L418.424 185.906L419.337 184.6L450.134 206.132C451.199 206.87 452.461 207.27 453.757 207.28C455.053 207.29 456.321 206.91 457.398 206.189L489.101 184.755L489.994 186.076L458.29 207.51C456.966 208.401 455.405 208.876 453.808 208.873Z" fill="#254145"/>
<path d="M453.635 214.377C456.949 214.377 459.635 211.691 459.635 208.377C459.635 205.063 456.949 202.377 453.635 202.377C450.322 202.377 447.635 205.063 447.635 208.377C447.635 211.691 450.322 214.377 453.635 214.377Z" fill="#254145"/>
<path d="M401.7 546.2C401.7 546.2 402.72 525.325 423.645 527.751L401.7 546.2Z" fill="#F0F0F0"/>
<path d="M395.787 526.334C401.571 526.334 406.26 521.758 406.26 516.113C406.26 510.468 401.571 505.891 395.787 505.891C390.003 505.891 385.314 510.468 385.314 516.113C385.314 521.758 390.003 526.334 395.787 526.334Z" fill="#F0F0F0"/>
<path d="M397.039 533.325H394.083V553.522H397.039V533.325Z" fill="#F0F0F0"/>
<path d="M499.786 514.243C546.527 514.243 584.418 477.261 584.418 431.64C584.418 386.02 546.527 349.038 499.786 349.038C453.045 349.038 415.154 386.02 415.154 431.64C415.154 477.261 453.045 514.243 499.786 514.243Z" fill="#254145"/>
<circle cx="531" cy="421" r="25" fill="white"/>
<circle cx="464" cy="420" r="25" fill="white"/>
<path d="M455.202 420.783C459.931 420.783 463.764 417.041 463.764 412.425C463.764 407.81 459.931 404.068 455.202 404.068C450.473 404.068 446.639 407.81 446.639 412.425C446.639 417.041 450.473 420.783 455.202 420.783Z" fill="#254145"/>
<path d="M522.407 420.783C527.136 420.783 530.969 417.041 530.969 412.425C530.969 407.81 527.136 404.068 522.407 404.068C517.678 404.068 513.844 407.81 513.844 412.425C513.844 417.041 517.678 420.783 522.407 420.783Z" fill="#254145"/>
<path d="M442.957 456.436C448.456 456.436 452.913 452.085 452.913 446.718C452.913 441.351 448.456 437 442.957 437C437.458 437 433 441.351 433 446.718C433 452.085 437.458 456.436 442.957 456.436Z" fill="#FF5684"/>
<path d="M551.957 456.436C557.456 456.436 561.913 452.085 561.913 446.718C561.913 441.351 557.456 437 551.957 437C546.458 437 542 441.351 542 446.718C542 452.085 546.458 456.436 551.957 456.436Z" fill="#FF5684"/>
<path d="M491.4 442L480 456L499 450.616L491.4 442Z" fill="#B3DCD3"/>
<path d="M534.423 554.33L525.944 547.385L526.142 554.33H523.509L523.298 546.986L511.851 554.33H507.06L523.213 543.967L522.587 522.208L522.119 505.774L524.746 505.703L525.221 522.208L525.845 543.948L538.516 554.33H534.423Z" fill="#254145"/>
<path d="M494.592 554.33L486.115 547.385L486.312 554.33H483.686L483.475 546.986L472.028 554.33H467.236L483.383 543.967L482.758 522.208L482.291 505.774L484.923 505.703L485.397 522.208L486.016 543.948L498.687 554.33H494.592Z" fill="#254145"/>
<path d="M501.031 342.964C498.709 342.964 496.66 344.725 495.29 347.429C494.083 343.362 491.547 340.535 488.585 340.535C488.384 340.554 488.184 340.587 487.987 340.633C486.849 336.291 484.202 333.246 481.117 333.246C476.993 333.246 473.65 338.685 473.65 345.394C473.65 352.102 476.993 357.541 481.117 357.541C481.319 357.522 481.518 357.489 481.715 357.443C482.854 361.785 485.5 364.83 488.585 364.83C490.907 364.83 492.956 363.069 494.325 360.365C495.533 364.431 498.069 367.259 501.031 367.259C505.155 367.259 508.498 361.82 508.498 355.112C508.498 348.403 505.155 342.964 501.031 342.964Z" fill="#254145"/>
<path d="M419.993 434.211L373.371 426.83C371.022 426.458 368.63 426.086 366.273 426.409C363.916 426.733 361.557 427.866 360.355 429.871C359.778 430.835 359.498 431.941 359.549 433.056C359.6 434.171 359.98 435.248 360.644 436.158C361.307 437.067 362.226 437.77 363.289 438.183C364.352 438.595 365.514 438.699 366.636 438.482C364.091 438.401 361.416 438.348 359.158 439.496C356.9 440.644 355.301 443.432 356.402 445.673C356.732 446.291 357.179 446.843 357.719 447.3C359.419 448.787 361.515 449.774 363.765 450.146C366.015 450.518 368.327 450.261 370.433 449.405C368.717 451.807 365.311 452.164 362.365 452.72C359.419 453.276 356.014 454.903 355.904 457.83C355.781 461.118 359.791 462.866 363.092 463.535C380.719 467.075 399.016 465.62 415.822 459.341C417.711 458.706 419.499 457.815 421.133 456.694C422.965 455.337 424.357 453.493 425.143 451.383C425.928 449.273 426.075 446.987 425.564 444.799C425.053 442.61 423.907 440.611 422.262 439.042C420.618 437.473 418.545 436.399 416.292 435.95" fill="#254145"/>
<path d="M621.225 471.508C613.53 455.63 601.342 442.232 586.1 432.894C584.445 431.802 582.641 430.943 580.74 430.342C578.528 429.729 576.182 429.751 573.982 430.406C571.782 431.061 569.822 432.321 568.337 434.035C566.852 435.749 565.904 437.844 565.607 440.07C565.31 442.296 565.677 444.558 566.663 446.586L563.015 444.744C570.34 458.346 577.664 471.947 584.989 485.549C586.097 487.605 587.229 489.695 588.911 491.339C590.592 492.983 592.937 494.143 595.302 493.875C596.24 493.772 597.14 493.451 597.925 492.939C598.71 492.426 599.357 491.738 599.813 490.93C600.269 490.123 600.52 489.221 600.545 488.299C600.569 487.378 600.367 486.464 599.955 485.635C600.983 487.049 602.335 488.21 603.903 489.025C606.2 490.096 609.445 489.668 610.618 487.462C610.926 486.833 611.109 486.153 611.159 485.457C611.355 483.238 610.903 481.009 609.856 479.03C608.809 477.051 607.209 475.402 605.241 474.274C608.24 474.169 610.579 476.611 612.805 478.575C615.031 480.539 618.409 482.218 620.872 480.545C623.639 478.664 622.661 474.486 621.225 471.508Z" fill="#254145"/>
<path d="M634.313 555H372.792C372.61 555 372.435 554.929 372.306 554.804C372.178 554.678 372.105 554.508 372.105 554.33C372.105 554.152 372.178 553.982 372.306 553.856C372.435 553.731 372.61 553.66 372.792 553.66H634.313C634.495 553.66 634.67 553.731 634.799 553.856C634.927 553.982 635 554.152 635 554.33C635 554.508 634.927 554.678 634.799 554.804C634.67 554.929 634.495 555 634.313 555Z" fill="#CACACA"/>
</svg>
